<svg width="36" height="36" viewBox="0 0 36 36" fill="none" xmlns="http://www.w3.org/2000/svg">
<circle cx="18" cy="18.3563" r="17" fill="#7597FF" stroke="#7597FF"/>
<g clip-path="url(#clip0_155_2206)">
<path fill-rule="evenodd" clip-rule="evenodd" d="M20.9092 16.1745C20.9092 16.946 20.6028 17.686 20.0572 18.2315C19.5116 18.7771 18.7717 19.0836 18.0002 19.0836C17.2286 19.0836 16.4887 18.7771 15.9431 18.2315C15.3976 17.686 15.0911 16.946 15.0911 16.1745C15.0911 15.4029 15.3976 14.663 15.9431 14.1174C16.4887 13.5719 17.2286 13.2654 18.0002 13.2654C18.7717 13.2654 19.5116 13.5719 20.0572 14.1174C20.6028 14.663 20.9092 15.4029 20.9092 16.1745ZM19.4547 16.1745C19.4547 16.5602 19.3015 16.9302 19.0287 17.203C18.7559 17.4758 18.3859 17.629 18.0002 17.629C17.6144 17.629 17.2444 17.4758 16.9716 17.203C16.6989 16.9302 16.5456 16.5602 16.5456 16.1745C16.5456 15.7887 16.6989 15.4187 16.9716 15.146C17.2444 14.8732 17.6144 14.7199 18.0002 14.7199C18.3859 14.7199 18.7559 14.8732 19.0287 15.146C19.3015 15.4187 19.4547 15.7887 19.4547 16.1745Z" fill="#F7F6F6"/>
<path fill-rule="evenodd" clip-rule="evenodd" d="M18 10.3563C13.5818 10.3563 10 13.9381 10 18.3563C10 22.7745 13.5818 26.3563 18 26.3563C22.4182 26.3563 26 22.7745 26 18.3563C26 13.9381 22.4182 10.3563 18 10.3563ZM11.4545 18.3563C11.4545 19.8763 11.9731 21.2756 12.8422 22.3869C13.4525 21.5853 14.2399 20.9358 15.1429 20.4889C16.0458 20.0421 17.0398 19.81 18.0473 19.8109C19.0417 19.8099 20.0232 20.036 20.917 20.4718C21.8109 20.9076 22.5934 21.5417 23.2051 22.3258C23.8352 21.4993 24.2595 20.5347 24.4428 19.5117C24.6261 18.4887 24.5632 17.4367 24.2593 16.4429C23.9553 15.449 23.4191 14.5418 22.6949 13.7964C21.9707 13.0509 21.0795 12.4886 20.0948 12.156C19.1102 11.8233 18.0605 11.73 17.0326 11.8836C16.0047 12.0372 15.0282 12.4333 14.1838 13.0393C13.3395 13.6452 12.6515 14.4435 12.1769 15.3681C11.7023 16.2927 11.4547 17.317 11.4545 18.3563ZM18 24.9018C16.4974 24.904 15.0402 24.3871 13.8749 23.4385C14.3439 22.767 14.9682 22.2188 15.6947 21.8405C16.4211 21.4621 17.2282 21.2648 18.0473 21.2654C18.8561 21.2648 19.6534 21.4571 20.373 21.8265C21.0926 22.1958 21.7137 22.7315 22.1847 23.3891C21.0104 24.3685 19.5292 24.9039 18 24.9018Z" fill="#F7F6F6"/>
</g>
<defs>
<clipPath id="clip0_155_2206">
<rect width="16" height="16" fill="white" transform="translate(10 10.3563)"/>
</clipPath>
</defs>
</svg>
